<?xml version="1.0" standalone="no"?><!DOCTYPE svg PUBLIC "-//W3C//DTD SVG 1.1//EN" "http://www.w3.org/Graphics/SVG/1.1/DTD/svg11.dtd"><svg t="1492316747770" class="icon" style="" viewBox="0 0 1344 1024" version="1.1" xmlns="http://www.w3.org/2000/svg" p-id="1428" xmlns:xlink="http://www.w3.org/1999/xlink" width="262.5" height="200"><defs><style type="text/css"></style></defs><path d="M1086.656 415.424c-13.76-211.52-160.864-415.424-430.656-415.424-32.928 0-65.408 3.2-96.576 9.504-8.672 1.76-14.24 10.176-12.512 18.88 1.76 8.672 10.048 14.24 18.88 12.512 29.056-5.92 59.424-8.896 90.208-8.896 274.816 0 400 215.648 400 416l0 48c0 8.832 7.168 16 16 16s16-7.168 16-16l0-48c0-0.16-0.032-0.352-0.032-0.512 98.016 8.448 224.032 93.824 224.032 272.512 0 152.544-112.448 272-256 272l-768 0c-127.232 0-256-93.44-256-272 0-131.008 80.128-272 256-272l48 0c8.832 0 16-7.168 16-16s-7.168-16-16-16l-48 0 0-64c0-119.264 73.568-193.344 192-193.344 107.648 0 192 84.928 192 193.344l0 415.776-133.12-123.52c-6.4-6.016-16.544-5.664-22.592 0.832-6.016 6.464-5.664 16.608 0.832 22.592l144.512 134.048c9.568 9.536 18.016 14.24 26.464 14.24 8.352 0 16.64-4.64 25.856-13.856l144.928-134.464c6.496-6.016 6.88-16.128 0.832-22.592-6.016-6.528-16.192-6.88-22.592-0.832l-133.12 123.552 0-415.776c0-126.368-98.4-225.344-224-225.344-136.064 0-224 88.448-224 225.344l0 65.632c-168.16 16.256-256 160.096-256 302.368 0 147.36 100.928 304 288 304l768 0c161.504 0 288-133.536 288-304 0-201.728-145.824-296.896-257.344-304.576z" p-id="1429" fill="#3498DB"></path></svg>